<svg xmlns="http://www.w3.org/2000/svg" xmlns:xlink="http://www.w3.org/1999/xlink" width="2030.414" height="1911.29" viewBox="0 0 2030.414 1911.29">
  <defs>
    <clipPath id="clip-path">
      <rect id="Rectangle_68" data-name="Rectangle 68" width="2030.414" height="1911.29" fill="none"/>
    </clipPath>
  </defs>
  <g id="Group_390" data-name="Group 390" opacity="0.146">
    <g id="Group_389" data-name="Group 389" clip-path="url(#clip-path)">
      <path id="Path_4512" data-name="Path 4512" d="M458.241,318.407A117.47,117.47,0,1,1,323.487,272.32a152.337,152.337,0,1,0,134.753,46.087" transform="translate(530.946 741.047)" fill="#fff"/>
      <path id="Path_4513" data-name="Path 4513" d="M316.987,311.926" transform="translate(862.596 848.824)" fill="#fff"/>
      <path id="Path_4514" data-name="Path 4514" d="M405.981,323.519l-79.02,82.723L394.345,313.8c-15.99-4.447-52.879-10.293-73.044,22.287C295.07,378.46,285.711,455.6,285.711,455.6s74.257-22.908,111.3-56.243c28.482-25.632,16.184-60.894,8.968-75.842" transform="translate(777.487 844.405)" fill="#fff"/>
      <path id="Path_4515" data-name="Path 4515" d="M314.277,295.27" transform="translate(855.222 803.499)" fill="#fff"/>
      <path id="Path_4516" data-name="Path 4516" d="M418.591,372.724,326.2,305.255l82.652,79.095c-14.956,7.2-50.229,19.469-75.831-9.035C299.72,338.236,276.883,263.96,276.883,263.96s77.134,9.43,119.489,35.7c32.561,20.2,26.681,57.08,22.219,73.066" transform="translate(753.464 718.297)" fill="#fff"/>
      <path id="Path_4517" data-name="Path 4517" d="M457.019,283.192" transform="translate(1243.656 770.632)" fill="#fff"/>
      <path id="Path_4518" data-name="Path 4518" d="M462.519,343.47,566.2,295.127,457.038,329.333c.912-16.574,7.193-53.388,44.517-62.052,48.547-11.268,124.624,4.588,124.624,4.588s-45.5,63-88.945,87.412c-33.406,18.766-62.866-4.186-74.715-15.812" transform="translate(1243.708 716.331)" fill="#fff"/>
      <path id="Path_4519" data-name="Path 4519" d="M517.859,532.015l38.169-95.42,87.784-41.983-87.784-45.8-38.169-87.788-38.169,95.42-87.784,40.074,95.42,47.71Z" transform="translate(1066.469 710.306)" fill="#fff"/>
      <path id="Path_4520" data-name="Path 4520" d="M278.472,598.379l47.844-61.94,73.055-12.459-54.762-51.844-9.66-72.259-47.844,61.94-72.657,11.06L274.4,527.712Z" transform="translate(583.564 1088.159)" fill="#fff"/>
      <path id="Path_4521" data-name="Path 4521" d="M264.168,377.128l23.991-31.061,36.635-6.248-27.459-26-4.849-36.237L268.5,308.646l-36.435,5.548,30.064,27.5Z" transform="translate(631.494 755.375)" fill="#fff"/>
      <path id="Path_4522" data-name="Path 4522" d="M17.723,344.908l48.264-10.836,40.573,23.406-5.731-47.315,24.449-39.054L77.009,281.944,37.2,258.017l7.048,50.865Z" transform="translate(48.227 702.124)" fill="#fff"/>
      <path id="Path_4523" data-name="Path 4523" d="M472.509,575.636c15.592-26.339,31.664-52.406,46.661-79.08,21.833-38.846,41.183-78.7,50.106-123,4.127-20.478,19.752-29.815,40.528-25.7,33.271,6.594,56.176,26.287,67.857,58.089,7.528,20.5,1.615,36.308-18.643,43.966-66.067,24.969-118.41,69.963-171.129,114.6-4.678,3.959-9.3,7.986-13.947,11.979-.48-.283-.956-.569-1.433-.852" transform="translate(1285.808 944.005)" fill="#fff"/>
      <path id="Path_4524" data-name="Path 4524" d="M478.458,518.141c51.576-52.168,106.811-99.115,172.8-132.067,18.64-9.311,35.806-8.328,51.476,5.065,16.113,13.765,21.457,31.984,17.609,52.521-4.875,26-15.454,37.324-39.56,38.6-68.81,3.665-136.1,15.026-202.32,35.876" transform="translate(1301.997 1033.911)" fill="#fff"/>
      <path id="Path_4525" data-name="Path 4525" d="M462.883,593.818c3.189-29.375,7.926-55.458,8.436-81.618.8-41.507-.313-83.114-2.437-124.583-1.068-20.8,3.889-35.8,23.656-44.956,21.639-10.025,42.329-9.739,61.534,4.637,17.159,12.838,21.241,30.194,14.833,50.572-17.177,54.657-44.878,104.053-75.619,151.916-9.1,14.163-19.112,27.734-30.4,44.033" transform="translate(1259.613 913.614)" fill="#fff"/>
      <path id="Path_4526" data-name="Path 4526" d="M500.953,571.3c-7.521-62.379-23.072-121.763-57.415-175.33-8.086-12.608-11.357-27.876-2.262-41.756,9.374-14.3,24-17.1,40.174-14.609,17.185,2.638,28.159,13.266,30.559,29.334,3.9,26.082,6.817,52.559,7.011,78.894A408,408,0,0,1,500.953,571.3" transform="translate(1185.916 921.929)" fill="#fff"/>
      <path id="Path_4527" data-name="Path 4527" d="M482.8,453.522c31.712-9.712,60.314-20.791,89.939-26.908a599.544,599.544,0,0,1,95.386-11.45c30.935-1.321,47.5,14.9,48.458,41.4.707,19.618-13.214,34.764-32.836,34.522-7.394-.089-15.339-1.351-22.033-4.324C608.237,463.049,487.159,456.5,482.8,453.522" transform="translate(1313.807 1129.554)" fill="#fff"/>
      <path id="Path_4528" data-name="Path 4528" d="M482.022,433.212c27.686,3.267,53.437,4.432,78.3,9.761a504.044,504.044,0,0,1,77.253,23.5c24.244,9.463,31.5,27.548,23.258,48.264-6.1,15.328-21.937,22.264-36.952,15.432a48.134,48.134,0,0,1-15.488-10.788c-33.1-36.353-124.021-82.4-126.37-86.165" transform="translate(1311.695 1178.872)" fill="#fff"/>
      <path id="Path_4529" data-name="Path 4529" d="M534.537,526.528c-7.372-26.886-12.373-52.175-21.356-75.962A503.888,503.888,0,0,0,478.394,377.7c-12.976-22.558-31.943-27.027-51.193-15.778-14.249,8.321-18.74,25.018-9.738,38.842a48.153,48.153,0,0,0,12.983,13.7c40.893,27.3,100.016,110.312,104.09,112.069" transform="translate(1123.352 968.72)" fill="#fff"/>
      <path id="Path_4530" data-name="Path 4530" d="M345.527,379.955h27.091l-19.157,19.153a20.432,20.432,0,0,0,28.9,28.9L401.51,408.85v27.087a20.431,20.431,0,1,0,40.863,0V408.847L461.529,428a20.432,20.432,0,1,0,28.9-28.9l-19.157-19.153h27.091a20.433,20.433,0,0,0,0-40.867H471.272l19.15-19.15a20.432,20.432,0,1,0-28.9-28.9L442.372,310.2V283.106a20.431,20.431,0,1,0-40.863,0v27.087L382.36,291.04a20.432,20.432,0,0,0-28.9,28.9l19.153,19.157H345.527a20.431,20.431,0,1,0,0,40.863m63.555-44.51a27.326,27.326,0,0,1,25.718,0,27.325,27.325,0,0,1,11.216,11.216,27.329,27.329,0,0,1,0,25.721,27.254,27.254,0,0,1-50.188-20.791,27.258,27.258,0,0,1,13.255-16.146" transform="translate(884.657 714.795)" fill="#fff"/>
      <path id="Path_4531" data-name="Path 4531" d="M367.281,416.527h21.427L373.559,431.68a16.16,16.16,0,0,0,22.852,22.856l15.149-15.149v21.42a16.161,16.161,0,0,0,32.323,0V439.383l15.153,15.149a16.159,16.159,0,0,0,22.852-22.852l-15.149-15.153h21.423a16.161,16.161,0,1,0,0-32.323H466.739l15.149-15.145A16.162,16.162,0,1,0,459.032,346.2l-15.149,15.149V339.925a16.159,16.159,0,1,0-32.319,0v21.423L396.415,346.2a16.162,16.162,0,0,0-22.856,22.856l15.149,15.149H367.281a16.159,16.159,0,1,0,0,32.319m50.27-35.2A21.59,21.59,0,0,1,437.9,419.411a21.879,21.879,0,0,1-3.9,1.611,19.6,19.6,0,0,1-12.544,0,21.54,21.54,0,0,1-12.771-10.483,21.224,21.224,0,0,1-1.611-3.9,19.6,19.6,0,0,1,0-12.544,21.224,21.224,0,0,1,1.611-3.9,21.589,21.589,0,0,1,8.871-8.871" transform="translate(955.48 881.038)" fill="#fff"/>
      <path id="Path_4532" data-name="Path 4532" d="M34.782,442.619H53.075L40.14,455.55a13.795,13.795,0,0,0,19.507,19.51l12.931-12.931v18.286a13.795,13.795,0,0,0,27.589,0v-18.29L113.1,475.057a13.793,13.793,0,1,0,19.507-19.507l-12.931-12.931h18.29a13.795,13.795,0,0,0,0-27.589h-18.29L132.605,402.1a13.795,13.795,0,1,0-19.507-19.51l-12.931,12.931v-18.29a13.795,13.795,0,1,0-27.589,0v18.29L59.651,382.591A13.795,13.795,0,0,0,40.14,402.1l12.935,12.931H34.782a13.795,13.795,0,1,0,0,27.589m42.91-30.049a18.454,18.454,0,0,1,17.363,0,18.469,18.469,0,0,1,7.573,7.573,18.484,18.484,0,0,1,0,17.363,18.369,18.369,0,0,1-10.9,8.946,16.719,16.719,0,0,1-10.706,0,18.1,18.1,0,0,1-12.28-22.986,18.256,18.256,0,0,1,1.377-3.327,18.469,18.469,0,0,1,7.573-7.573" transform="translate(57.111 989)" fill="#fff"/>
      <path id="Path_4533" data-name="Path 4533" d="M659.512,532.858a7.657,7.657,0,0,0,.566-3.457c2.56-16.046,9.18-63.3,3.732-93.105-5.251-28.728-34.831-79.679-47-99.77a4.282,4.282,0,0,0-7.826,1.183c-4.886,19.652-14.349,65.732-7.208,104.8a117.713,117.713,0,0,0,7.539,24.7,4.284,4.284,0,0,1-6.5,5.158c-7.949-6.08-16.731-12.332-26.335-18.547a4.272,4.272,0,0,1-1.928-3.018c-2.233-17-9.217-62.84-22.588-89.343-13.151-26.078-55.919-66.6-73.264-82.433a4.283,4.283,0,0,0-7.171,3.349c.863,20.24,4.8,67.109,22.688,102.568a122.759,122.759,0,0,0,18.383,26.439,4.273,4.273,0,0,1-4.823,6.791c-10.126-4.052-20.757-7.818-31.865-11.223a4.246,4.246,0,0,1-2.449-1.935c-8.682-15.019-32.565-54.39-54.955-73.658-22.138-19.049-77.164-40.1-99.253-48.078a4.281,4.281,0,0,0-5.344,5.835c8.548,18.361,30.142,60.154,60.247,86.057a120.954,120.954,0,0,0,24.817,16.254c-2.49-.257-4.934-.562-7.461-.778a369.232,369.232,0,0,0-37.771-1.195,4.216,4.216,0,0,1-3.252-1.422c-13.6-15.324-40.669-44.033-63.559-57.2-25.319-14.557-83.318-24.906-106.513-28.6a4.279,4.279,0,0,0-4.153,6.732C188.117,325.4,217.169,362.4,251.6,382.2a115.311,115.311,0,0,0,20.005,8.99,4.266,4.266,0,0,1-.484,8.217c-10.658,2.359-21.032,5.057-31.091,8.019a4.226,4.226,0,0,1-3.878-.774c-15.733-12.775-47.621-37.149-72.657-46.493-27.359-10.215-86.269-10.926-109.758-10.777a4.282,4.282,0,0,0-3,7.323c14.375,14.271,49.091,46.013,86.3,59.9a125.774,125.774,0,0,0,35.251,7.242,4.274,4.274,0,0,1,1.462,8.176q-8.512,3.829-16.448,7.725a4.071,4.071,0,0,1-1.035.342c-20.761,3.911-47.8,10.345-65.806,19.659-25.937,13.422-66.007,56.611-81.663,74.12a4.283,4.283,0,0,0,3.424,7.137c20.229-1.075,67.053-5.5,102.323-23.756,32.952-17.051,55.3-51.368,65.434-69.695a4.2,4.2,0,0,1,2-1.838,511.94,511.94,0,0,1,70.953-25.587,123.986,123.986,0,0,0-17.907,10.732C216.878,444.393,191.9,481.62,181.08,498.5a4.283,4.283,0,0,0,4.551,6.5c16.794-3.825,51.439-13.411,75.984-31.7,22.915-17.08,36.044-45.5,42.057-61.776a4.338,4.338,0,0,1,3.435-2.809,378.467,378.467,0,0,1,48.253-3.844,4.29,4.29,0,0,1,1.82,8.216q-.681.3-1.34.614c-15.339,7.249-38.809,30.146-50.441,42.061a4.284,4.284,0,0,0,3.226,7.275c14.23-.51,40.532-2.828,61.092-12.548,19.477-9.21,33.621-27.846,41.053-39.579a4.312,4.312,0,0,1,4.279-1.931,381.668,381.668,0,0,1,77.77,20.24,107.553,107.553,0,0,0-20.627-.476c-16.891,1.611-46.739,15.183-61.72,22.443a4.281,4.281,0,0,0,.562,7.937c13.56,4.354,39.088,11.1,61.724,8.935,21.018-2.009,40.3-14.278,51.39-22.785a4.3,4.3,0,0,1,4.521-.458A399.976,399.976,0,0,1,570.8,469.028a4.246,4.246,0,0,1-3.219,7.707c-.086-.015-.171-.034-.257-.048-16.667-3.178-49.12,1.5-65.535,4.276a4.282,4.282,0,0,0-1.682,7.777c11.8,7.975,34.421,21.594,56.76,25.848,22.127,4.22,45.581-3.319,58.156-8.473a4.294,4.294,0,0,1,4.51.83c17.408,15.946,26.521,27.4,26.8,27.757a7.585,7.585,0,0,0,12.269-.216c.357.316.543.476.543.476s.138-.763.365-2.1" transform="translate(20.953 756.219)" fill="#fff"/>
      <path id="Path_4534" data-name="Path 4534" d="M323.366,370.737A32.237,32.237,0,1,1,355.6,402.974a32.237,32.237,0,0,1-32.237-32.237" transform="translate(879.955 921.138)" fill="#fff"/>
      <path id="Path_4535" data-name="Path 4535" d="M471.092,332.439a32.237,32.237,0,1,1,32.237,32.237,32.237,32.237,0,0,1-32.237-32.237" transform="translate(1281.952 816.92)" fill="#fff"/>
      <path id="Path_4536" data-name="Path 4536" d="M173.505,295.407a32.851,32.851,0,1,1,32.851,32.855,32.852,32.852,0,0,1-32.851-32.855" transform="translate(472.148 714.466)" fill="#fff"/>
      <path id="Path_4537" data-name="Path 4537" d="M441.031,290.911a25.425,25.425,0,1,1-25.423-25.423,25.424,25.424,0,0,1,25.423,25.423" transform="translate(1061.771 722.455)" fill="#fff"/>
      <path id="Path_4538" data-name="Path 4538" d="M158.123,367.94A25.425,25.425,0,1,1,132.7,342.517a25.425,25.425,0,0,1,25.423,25.423" transform="translate(291.912 932.069)" fill="#fff"/>
      <path id="Path_4539" data-name="Path 4539" d="M1520.8,742.221S1315.115,547.6,1111,547.6,466.219,742.221,466.219,742.221L259.013,432.961c-18.736-27.965-46-49.589-78.127-59.629-10.2-3.193-36.569-5.318-46.776-5.318,13.367,39.828,250.778,509.273,250.778,509.273s13.917,27.437,88.134,28.226C568.27,906.521,1520.8,742.221,1520.8,742.221" transform="translate(364.945 1001.453)" fill="#fff"/>
      <path id="Path_4540" data-name="Path 4540" d="M391.371,635.788,202.987,402.63c-24.207-23.392-55.413-38.786-88.937-41.83-10.646-.968-39.784-2.716-49.76-.566,8.6,39.906,354.366,536.245,354.366,536.245s23.782,43.635,116.9,23.567C455.607,767.884,391.371,635.788,391.371,635.788" transform="translate(174.945 977.49)" fill="#fff"/>
      <path id="Path_4541" data-name="Path 4541" d="M301.151,499.547,149.2,418.607c-32.1-10.133-66.9-9.991-98.259,2.237-9.962,3.885-19.589,8.864-27.559,15.238,25.5,31.88,394.607,232.1,394.607,232.1Z" transform="translate(63.631 1119.287)" fill="#fff"/>
      <path id="Path_4542" data-name="Path 4542" d="M365.182,527.495,153.146,479.442c-24.85-.383-63.287,5.813-82.887,21.092a78.024,78.024,0,0,0-16.277,16.6C78.759,534.3,419.419,606.66,419.419,606.66Z" transform="translate(146.9 1304.63)" fill="#fff"/>
      <path id="Path_4543" data-name="Path 4543" d="M1145.714,534.711s-196.9-166.7-309.164-166.7H186.789s13.609,35.716,71.44,68.035c42,23.47,382.056,43.181,382.056,43.181L570.072,590.448s198.439-94.013,331.112-106.77c113.021-10.87,244.53,51.033,244.53,51.033" transform="translate(508.297 1001.455)" fill="#fff"/>
      <path id="Path_4544" data-name="Path 4544" d="M225.127,197.491" transform="translate(612.624 537.419)" fill="#fff"/>
      <path id="Path_4545" data-name="Path 4545" d="M229.853,289.237,311.5,209.1l-70.328,90.233c15.841,4.957,52.518,11.99,73.725-19.924C342.476,237.9,354.317,161.1,354.317,161.1s-74.957,20.5-113.059,52.629c-29.294,24.7-18.134,60.34-11.406,75.511" transform="translate(604.243 438.38)" fill="#fff"/>
      <path id="Path_4546" data-name="Path 4546" d="M227.3,214.226" transform="translate(618.534 582.959)" fill="#fff"/>
      <path id="Path_4547" data-name="Path 4547" d="M229.724,230.239l90.162,70.409-80.062-81.715c15.179-6.717,50.836-17.843,75.5,11.473,32.092,38.131,52.525,113.107,52.525,113.107s-76.8-11.912-118.279-39.531c-31.887-21.237-24.824-57.91-19.849-73.744" transform="translate(613.307 574.609)" fill="#fff"/>
      <path id="Path_4548" data-name="Path 4548" d="M84.242,221.7" transform="translate(229.242 603.295)" fill="#fff"/>
      <path id="Path_4549" data-name="Path 4549" d="M204.107,237.97,98.918,282.948l110.212-30.67c-1.448,16.533-8.912,53.128-46.493,60.582-48.886,9.7-124.412-8.6-124.412-8.6s47.5-61.5,91.714-84.5c33.993-17.683,62.7,6.211,74.168,18.208" transform="translate(104.019 580.869)" fill="#fff"/>
      <path id="Path_4550" data-name="Path 4550" d="M212.418,172.078l-41.224,94.14L82.1,305.354l86.262,48.6,35.322,88.971,41.22-94.14,89.034-37.227L240.108,260.8Z" transform="translate(223.425 468.263)" fill="#fff"/>
      <path id="Path_4551" data-name="Path 4551" d="M405.086,59.02l-49.816,60.366-73.416,10.1,53.061,53.582,7.331,72.534,49.813-60.37,72.973-8.715-58.152-56.734Z" transform="translate(766.988 160.608)" fill="#fff"/>
      <path id="Path_4552" data-name="Path 4552" d="M603.6,248.956l-48.588,9.277-39.795-24.7L519.42,281l-25.7,38.247,48.592-9.273,39.021,25.2-5.407-51.067Z" transform="translate(1343.54 635.494)" fill="#fff"/>
      <path id="Path_4553" data-name="Path 4553" d="M228.378,97.026c-16.433,25.822-33.339,51.357-49.184,77.536-23.075,38.12-43.695,77.331-54.044,121.323-4.786,20.337-20.7,29.163-41.335,24.378-33.041-7.662-55.3-28.08-65.951-60.243-6.862-20.727-.443-36.342,20.05-43.341,66.841-22.83,120.605-66.115,174.731-109.028,4.8-3.807,9.556-7.681,14.33-11.521.469.3.934.6,1.4.9" transform="translate(41.412 261.59)" fill="#fff"/>
      <path id="Path_4554" data-name="Path 4554" d="M246.564,87.473C193.332,137.952,136.617,183.1,69.6,213.906c-18.93,8.7-36.055,7.167-51.29-6.721C2.656,192.907-2.1,174.524,2.41,154.12c5.708-25.825,16.649-36.8,40.785-37.309,68.891-1.444,136.51-10.632,203.369-29.338" transform="translate(2.141 238.035)" fill="#fff"/>
      <path id="Path_4555" data-name="Path 4555" d="M166.641,99.96c-4.138,29.256-9.712,55.171-11.063,81.305-2.14,41.455-2.37,83.077-1.578,124.594.394,20.824-5.039,35.661-25.092,44.171-21.955,9.322-42.619,8.373-61.356-6.616-16.731-13.385-20.255-30.86-13.2-51.026,18.93-54.073,48.212-102.55,80.475-149.4,9.549-13.862,19.994-27.105,31.809-43.032" transform="translate(138.556 272.015)" fill="#fff"/>
      <path id="Path_4556" data-name="Path 4556" d="M107.664,104.084c5.507,62.587,19.135,122.444,51.736,177.09,7.673,12.861,10.453,28.226.915,41.8-9.828,13.992-24.538,16.314-40.625,13.311-17.088-3.193-27.716-14.167-29.6-30.306-3.055-26.194-5.117-52.752-4.465-79.08a408.076,408.076,0,0,1,22.037-122.819" transform="translate(232.684 283.237)" fill="#fff"/>
      <path id="Path_4557" data-name="Path 4557" d="M233.564,111.22c-32.01,8.685-60.954,18.837-90.757,24A599.983,599.983,0,0,1,47.1,143.588C16.139,143.911.1,127.17,0,100.645-.074,81.015,14.327,66.324,33.934,67.2c7.383.327,15.283,1.846,21.881,5.031C108.5,97.656,229.3,108.106,233.564,111.22" transform="translate(0 182.761)" fill="#fff"/>
      <path id="Path_4558" data-name="Path 4558" d="M195.326,147.65c-27.567-4.16-53.269-6.151-77.945-12.276A504.1,504.1,0,0,1,40.924,109.4C17,99.163,10.332,80.851,19.237,60.414c6.59-15.127,22.644-21.55,37.432-14.237A48.2,48.2,0,0,1,71.8,57.459c31.913,37.4,121.3,86.351,123.53,90.192" transform="translate(42.059 117.432)" fill="#fff"/>
      <path id="Path_4559" data-name="Path 4559" d="M99.262,103.791c6.5,27.109,10.684,52.548,18.9,76.609a504.02,504.02,0,0,0,32.419,73.956c12.247,22.964,31.057,28.039,50.661,17.419,14.505-7.859,19.533-24.4,10.985-38.511a48.212,48.212,0,0,0-12.537-14.111c-39.992-28.6-96.41-113.475-100.425-115.362" transform="translate(270.115 282.44)" fill="#fff"/>
      <path id="Path_4560" data-name="Path 4560" d="M338.09,272.44l-27.079-.874,19.763-18.528a20.431,20.431,0,0,0-27.946-29.811l-19.763,18.524.875-27.068a20.433,20.433,0,1,0-40.844-1.317l-.871,27.076L223.7,220.677a20.431,20.431,0,0,0-29.811,27.947l18.528,19.763-27.076-.871a20.431,20.431,0,0,0-1.317,40.841l27.072.875-19.756,18.524a20.432,20.432,0,1,0,27.95,29.811l19.76-18.524-.874,27.076a20.433,20.433,0,0,0,40.844,1.317l.871-27.076,18.524,19.76a20.432,20.432,0,0,0,29.811-27.95l-18.528-19.76,27.079.871a20.431,20.431,0,1,0,1.317-40.841m-64.958,42.437a27.353,27.353,0,0,1-25.706-.83,28.089,28.089,0,0,1-13.772-24.53,27.007,27.007,0,0,1,1.559-7.885,26.628,26.628,0,0,1,2.2-4.86,27.326,27.326,0,0,1,11.569-10.847,26.893,26.893,0,0,1,4.99-1.879,27.292,27.292,0,0,1,19.164,50.832" transform="translate(446.96 526.807)" fill="#fff"/>
      <path id="Path_4561" data-name="Path 4561" d="M288.406,205.11l-21.419-.692,15.633-14.654a16.161,16.161,0,1,0-22.108-23.578l-15.629,14.651.692-21.412a16.16,16.16,0,1,0-32.3-1.038l-.692,21.412-14.654-15.629a16.159,16.159,0,1,0-23.578,22.1L189,201.906l-21.416-.692a16.162,16.162,0,0,0-1.042,32.308l21.416.688L172.33,248.861a16.162,16.162,0,0,0,22.108,23.581l15.629-14.654-.692,21.416a16.16,16.16,0,1,0,32.3,1.042l.692-21.412,14.65,15.625a16.159,16.159,0,1,0,23.578-22.1l-14.654-15.633,21.419.692a16.16,16.16,0,0,0,1.042-32.3m-51.379,33.566a21.551,21.551,0,1,1,9.154-8.581,21.541,21.541,0,0,1-9.154,8.581" transform="translate(410.65 388.442)" fill="#fff"/>
      <path id="Path_4562" data-name="Path 4562" d="M605.438,173.084l-18.282-.592L600.5,159.985a13.8,13.8,0,1,0-18.87-20.128l-13.341,12.507.592-18.275a13.794,13.794,0,0,0-27.574-.889l-.592,18.279-12.507-13.341A13.794,13.794,0,0,0,508.079,157l12.511,13.344-18.279-.588a13.792,13.792,0,1,0-.889,27.571l18.279.592L506.36,210.43a13.794,13.794,0,1,0,18.87,20.124l13.341-12.507-.592,18.279a13.794,13.794,0,1,0,27.574.889l.588-18.279,12.507,13.341a13.8,13.8,0,1,0,20.128-18.87l-12.511-13.341,18.282.592a13.794,13.794,0,0,0,.889-27.574m-43.855,28.65a18.485,18.485,0,0,1-17.356-.558,18.008,18.008,0,0,1-8.246-21.888,18.23,18.23,0,0,1,1.485-3.278,18.361,18.361,0,0,1,11.179-8.592,16.749,16.749,0,0,1,10.7.342,18.378,18.378,0,0,1,11.875,12.663,18.424,18.424,0,0,1-9.638,21.312" transform="translate(1328.164 326.146)" fill="#fff"/>
      <path id="Path_4563" data-name="Path 4563" d="M366.678,170.7a7.749,7.749,0,0,0-.677,3.442c-3.078,15.953-11.216,62.967-6.732,92.93,4.324,28.884,32.248,80.766,43.758,101.236a4.283,4.283,0,0,0,7.859-.927c5.519-19.488,16.463-65.241,10.583-104.518a118.048,118.048,0,0,0-6.739-24.936,4.285,4.285,0,0,1,6.661-4.945c7.744,6.337,16.325,12.864,25.721,19.391a4.257,4.257,0,0,1,1.831,3.077c1.682,17.066,7.189,63.1,19.7,90.028,12.306,26.484,53.746,68.355,70.569,84.744a4.281,4.281,0,0,0,7.275-3.115c-.208-20.255-2.638-67.232-19.369-103.242a122.854,122.854,0,0,0-17.523-27.024,4.272,4.272,0,0,1,5.039-6.631c9.992,4.376,20.493,8.488,31.489,12.243a4.247,4.247,0,0,1,2.382,2.017c8.194,15.287,30.8,55.405,52.555,75.388,21.512,19.749,75.831,42.564,97.649,51.249a4.281,4.281,0,0,0,5.53-5.66c-7.948-18.625-28.185-61.088-57.441-87.951a121.142,121.142,0,0,0-24.281-17.047c2.478.335,4.916.722,7.431,1.023a370.441,370.441,0,0,0,37.715,2.408,4.2,4.2,0,0,1,3.2,1.526c13.1,15.752,39.229,45.325,61.683,59.216,24.836,15.365,82.47,27.574,105.534,32.014a4.278,4.278,0,0,0,4.369-6.59c-11.305-16.809-39.151-54.724-72.925-75.615a114.922,114.922,0,0,0-19.708-9.634,4.266,4.266,0,0,1,.748-8.2c10.728-2.01,21.185-4.376,31.336-7.011a4.228,4.228,0,0,1,3.848.9c15.313,13.274,46.4,38.66,71.124,48.808,27.016,11.093,85.871,13.7,109.352,14.308a4.28,4.28,0,0,0,3.226-7.223c-13.9-14.725-47.58-47.569-84.323-62.651a125.872,125.872,0,0,0-35-8.38,4.273,4.273,0,0,1-1.2-8.216q8.63-3.556,16.69-7.186a3.966,3.966,0,0,1,1.042-.316c20.876-3.241,48.116-8.793,66.409-17.527,26.354-12.582,67.8-54.453,84.007-71.448a4.281,4.281,0,0,0-3.193-7.242c-20.251.421-67.194,3.338-103.037,20.441-33.48,15.979-56.924,49.563-67.641,67.555a4.216,4.216,0,0,1-2.062,1.768,510.944,510.944,0,0,1-71.742,23.291,123.5,123.5,0,0,0,18.245-10.152c18.58-12.935,44.744-49.34,56.1-65.862a4.28,4.28,0,0,0-4.335-6.642c-16.909,3.282-51.844,11.744-76.966,29.241-23.455,16.329-37.491,44.316-44.026,60.388a4.333,4.333,0,0,1-3.524,2.694,379.505,379.505,0,0,1-48.35,2.292A4.291,4.291,0,0,1,665,300.155c.461-.19.915-.376,1.358-.573,15.566-6.754,39.761-28.877,51.77-40.413a4.282,4.282,0,0,0-2.988-7.375c-14.241.048-40.606,1.522-61.464,10.572-19.767,8.577-34.5,26.748-42.31,38.239a4.318,4.318,0,0,1-4.335,1.79,381.524,381.524,0,0,1-77.078-22.737,107.8,107.8,0,0,0,20.6,1.146c16.932-1.072,47.2-13.676,62.413-20.444a4.286,4.286,0,0,0-.309-7.956c-13.411-4.782-38.712-12.351-61.4-10.918-21.07,1.336-40.736,12.972-52.1,21.122a4.309,4.309,0,0,1-4.532.313,400.5,400.5,0,0,1-41.332-25.565,4.246,4.246,0,0,1,3.464-7.6,2.146,2.146,0,0,1,.257.06c16.556,3.71,49.143.082,65.639-2.166a4.282,4.282,0,0,0,1.931-7.718c-11.539-8.35-33.711-22.692-55.9-27.664-21.981-4.927-45.667,1.849-58.4,6.594a4.285,4.285,0,0,1-4.48-.975c-16.883-16.5-25.624-28.233-25.892-28.6a7.58,7.58,0,0,0-12.269-.182c-.346-.331-.528-.495-.528-.495s-.164.759-.432,2.088" transform="translate(974.068 452.033)" fill="#fff"/>
      <path id="Path_4564" data-name="Path 4564" d="M267.022,186.4a32.237,32.237,0,1,1-31.184-33.26,32.24,32.24,0,0,1,31.184,33.26" transform="translate(551.225 416.688)" fill="#fff"/>
      <path id="Path_4565" data-name="Path 4565" d="M118.14,219.92a32.237,32.237,0,1,1-31.184-33.26,32.245,32.245,0,0,1,31.184,33.26" transform="translate(146.082 507.898)" fill="#fff"/>
      <path id="Path_4566" data-name="Path 4566" d="M415.266,267.436a32.853,32.853,0,1,1-31.779-33.893,32.855,32.855,0,0,1,31.779,33.893" transform="translate(951.279 635.477)" fill="#fff"/>
      <path id="Path_4567" data-name="Path 4567" d="M137.048,252.272A25.426,25.426,0,1,1,161.642,278.5a25.428,25.428,0,0,1-24.594-26.231" transform="translate(372.903 619.531)" fill="#fff"/>
      <path id="Path_4568" data-name="Path 4568" d="M422.291,184.4a25.425,25.425,0,1,1,24.594,26.231A25.428,25.428,0,0,1,422.291,184.4" transform="translate(1149.116 434.833)" fill="#fff"/>
      <path id="Path_4569" data-name="Path 4569" d="M40.507,129.538S239.82,330.682,443.826,337.261s650.718-173.744,650.718-173.744l197.132,315.777c17.825,28.553,44.376,51.044,76.166,62.115,10.1,3.517,36.379,6.494,46.579,6.821-12.075-40.238-234.237-517.088-234.237-517.088S1167.159,3.269,1093,.091C997.84-3.988,40.507,129.538,40.507,129.538" transform="translate(110.229 -0.002)" fill="#fff"/>
      <path id="Path_4570" data-name="Path 4570" d="M492.444,295.271,673.218,534.379c23.44,24.158,54.133,40.55,87.542,44.673,10.613,1.31,39.676,4,49.716,2.169-7.309-40.163-336.9-547.386-336.9-547.386S451.209-10.544,357.5,6.514c75,154.658,134.947,288.757,134.947,288.757" transform="translate(972.833 7.105)" fill="#fff"/>
      <path id="Path_4571" data-name="Path 4571" d="M529.361,207.516l149.262,85.793c31.757,11.164,66.539,12.142,98.278.93,10.081-3.561,19.868-8.228,28.039-14.342C780.481,247.214,418.018,35.2,418.018,35.2Z" transform="translate(1137.525 95.798)" fill="#fff"/>
      <path id="Path_4572" data-name="Path 4572" d="M448,82.088l210.38,54.858c24.821,1.183,63.44-3.77,83.523-18.409a77.989,77.989,0,0,0,16.8-16.072C734.493,84.518,396.341,1.214,396.341,1.214Z" transform="translate(1078.537 3.304)" fill="#fff"/>
      <path id="Path_4573" data-name="Path 4573" d="M100.951,119.725S292.383,292.681,404.585,296.3l649.422,20.936s-12.451-36.141-69.211-70.305c-41.22-24.809-380.467-55.465-380.467-55.465l73.759-108.9S476.725,170.137,343.71,178.61c-113.315,7.223-242.758-58.885-242.758-58.885" transform="translate(274.711 224.679)" fill="#fff"/>
      <path id="Path_4574" data-name="Path 4574" d="M570.06,310.743A152.254,152.254,0,1,1,417.805,158.489,152.253,152.253,0,0,1,570.06,310.743" transform="translate(722.627 431.286)" fill="#fff"/>
    </g>
  </g>
</svg>
