<?xml version="1.0" encoding="utf-8"?>
<!-- Generator: Adobe Illustrator 25.3.1, SVG Export Plug-In . SVG Version: 6.00 Build 0)  -->
<svg version="1.1" id="Layer_1" xmlns="http://www.w3.org/2000/svg" xmlns:xlink="http://www.w3.org/1999/xlink" x="0px" y="0px"
	 viewBox="0 0 260.1 110.2" style="enable-background:new 0 0 260.1 110.2;" xml:space="preserve">
<style type="text/css">
	.st0{fill:#FFFFFF;}
</style>
<path class="st0" d="M4,84.6c1.1,1.3,2.3,2.4,3.7,3.5c1.2-0.7,0.9-1.3,1.9-2.3c15.1,8.8,30.8,9.3,59.1,4.5
	C45.1,66.2,33.8,70.4,33.5,69.5c4.2-1.9,11.2-6.1,15.3-7.4c1.2,2,2.5,3.9,4,5.6c4.9,5.9,15,13.5,21.8,15.9
	c9.2,3.3,20.7,4.2,32.9,3.8c-8.3-13.5-14.4-30.8-32.2-35.1c8.6-2.2,8.7-2.2,16.3-3.2c3.4,8.4,14.1,21.9,20.1,25.6
	c10.3,6.4,20.9,7.6,42.8,10.6c-5.2-12-17-32.3-30-41c5.1-0.5,16.1-1.3,18.1-0.7c1.9,7.1,10.1,25.3,15.1,31.2
	c8.6,10.1,27.3,18.3,43.7,22.2c-1.9-15.7-10.3-35-21.6-46.5c4.9,0.7,4.2,1.2,8.8,2.4c6,1.6,7.5,7.9,10.4,15
	c4.4,10.8,8.5,19.2,17.5,24c10.7,5.7,27.8,9.7,41.4,13.2c-2.9-6.6-5.4-23.3-8.6-29.8c-8.6-16.6-19.5-29.2-39.6-27
	c-12.7,1.4-18.3-1.3-31-3.4c-0.9-0.3,12.2-0.9,21.6-5.1c14.1-6.3,24.7-11.7,24.5-12.3c-6.3-4.2-22.7-10.2-28.5-11.7
	c-33.6-8.6-51.1,22.8-52.8,22.8c-4.3-0.2-10.1-0.1-14.4,0.3c18.6-13.3,27.5-26.7,28.7-35.8C94.2-6.1,91.5,43.3,90,43.5
	c-4.2,0.4-11.1,2.1-15.1,3.5C87.8,34.1,93.2,17.1,96.2,2.2C67.3,6.4,49.8,25.6,48.6,47.4c-0.1,2.5-0.3,8.6-0.5,8.7
	c-3.9,1.6-8.6,3.9-12.1,6.1c5.8-14.4,7.4-27,11.8-44.5C44.8,19.7,0.6,38.6,8,74.1c0.6,4.7,0.3,6.7,0.2,6.8C6.8,82.2,5.7,83,4,84.6z"
	/>
</svg>
